HIERARCHY
ROOT Hips
{
  OFFSET 5.84602e-005 68.8428 3.50346
  CHANNELS 6 Xposition Yposition Zposition Zrotation Xrotation Yrotation
  JOINT Spine
  {
    OFFSET 0 8.597 -4.6522
    CHANNELS 3 Zrotation Xrotation Yrotation
    JOINT Spine1
    {
      OFFSET 0 7.8454 0.4098
      CHANNELS 3 Zrotation Xrotation Yrotation
      JOINT Spine2
      {
        OFFSET 0 9.7078 -2.1609
        CHANNELS 3 Zrotation Xrotation Yrotation
        JOINT Neck
        {
          OFFSET 0 21.8761 -0.4549
          CHANNELS 3 Zrotation Xrotation Yrotation
          JOINT Head
          {
            OFFSET 0 12.3537 3.3602
            CHANNELS 3 Zrotation Xrotation Yrotation
            End Site
            {
              OFFSET 0.0001 18.9506 0.5657
            }
          }
        }
        JOINT LeftShoulder
        {
          OFFSET 2.2086 21.1115 7.2329
          CHANNELS 3 Zrotation Xrotation Yrotation
          JOINT LeftArm
          {
            OFFSET 13.1193 3.0282 -4.8998
            CHANNELS 3 Zrotation Xrotation Yrotation
            JOINT LeftForeArm
            {
              OFFSET 27.4081 -0.0973053 -0.2375
              CHANNELS 3 Zrotation Xrotation Yrotation
              JOINT LeftHand
              {
                OFFSET 22.8641 0.0662994 -0.1369
                CHANNELS 3 Zrotation Xrotation Yrotation
                JOINT LeftHandIndex1
                {
                  OFFSET 8.8614 0.775009 2.4612
                  CHANNELS 3 Zrotation Xrotation Yrotation
                  JOINT LeftHandIndex2
                  {
                    OFFSET 3.3146 -0.808304 0.5841
                    CHANNELS 3 Zrotation Xrotation Yrotation
                    JOINT LeftHandIndex3
                    {
                      OFFSET 2.2628 -0.552002 0.3989
                      CHANNELS 3 Zrotation Xrotation Yrotation
                      End Site
                      {
                        OFFSET 1.6102 -0.4807 0.2612
                      }
                    }
                  }
                }
                JOINT LeftHandMiddle1
                {
                  OFFSET 8.9937 0.895004 0.2143
                  CHANNELS 3 Zrotation Xrotation Yrotation
                  JOINT LeftHandMiddle2
                  {
                    OFFSET 4.0984 0.0113983 -0.0242
                    CHANNELS 3 Zrotation Xrotation Yrotation
                    JOINT LeftHandMiddle3
                    {
                      OFFSET 2.2716 0.00689697 -0.0138001
                      CHANNELS 3 Zrotation Xrotation Yrotation
                      End Site
                      {
                        OFFSET 2.0404 -0.1441 0.0027
                      }
                    }
                  }
                }
                JOINT LeftHandRing1
                {
                  OFFSET 8.5234 0.597198 -2.0164
                  CHANNELS 3 Zrotation Xrotation Yrotation
                  JOINT LeftHandRing2
                  {
                    OFFSET 3.7188 -0.188293 -0.2328
                    CHANNELS 3 Zrotation Xrotation Yrotation
                    JOINT LeftHandRing3
                    {
                      OFFSET 2.1191 -0.106598 -0.1332
                      CHANNELS 3 Zrotation Xrotation Yrotation
                      End Site
                      {
                        OFFSET 1.8737 -0.2304 -0.0886
                      }
                    }
                  }
                }
                JOINT LeftHandPinky1
                {
                  OFFSET 7.9094 -0.601089 -3.4825
                  CHANNELS 3 Zrotation Xrotation Yrotation
                  JOINT LeftHandPinky2
                  {
                    OFFSET 2.2874 -0.477005 -0.6314
                    CHANNELS 3 Zrotation Xrotation Yrotation
                    JOINT LeftHandPinky3
                    {
                      OFFSET 1.6774 -0.349396 -0.4633
                      CHANNELS 3 Zrotation Xrotation Yrotation
                      End Site
                      {
                        OFFSET 1.4888 -0.4091 -0.3416
                      }
                    }
                  }
                }
                JOINT LeftHandThumb1
                {
                  OFFSET 1.833 -1.3875 1.3896
                  CHANNELS 3 Zrotation Xrotation Yrotation
                  JOINT LeftHandThumb2
                  {
                    OFFSET 3.4129 -1.121 2.5732
                    CHANNELS 3 Zrotation Xrotation Yrotation
                    JOINT LeftHandThumb3
                    {
                      OFFSET 2.2474 -0.804199 1.6192
                      CHANNELS 3 Zrotation Xrotation Yrotation
                      End Site
                      {
                        OFFSET 1.6527 -0.5689 1.1317
                      }
                    }
                  }
                }
              }
            }
          }
        }
        JOINT RightShoulder
        {
          OFFSET -2.2086 21.1115 7.2329
          CHANNELS 3 Zrotation Xrotation Yrotation
          JOINT RightArm
          {
            OFFSET -13.1216 3.0287 -4.9007
            CHANNELS 3 Zrotation Xrotation Yrotation
            JOINT RightForeArm
            {
              OFFSET -27.4081 -0.0973053 -0.2375
              CHANNELS 3 Zrotation Xrotation Yrotation
              JOINT RightHand
              {
                OFFSET -22.8641 0.0664063 -0.1369
                CHANNELS 3 Zrotation Xrotation Yrotation
                JOINT RightHandIndex1
                {
                  OFFSET -8.8614 0.774994 2.4612
                  CHANNELS 3 Zrotation Xrotation Yrotation
                  JOINT RightHandIndex2
                  {
                    OFFSET -3.3146 -0.808304 0.5841
                    CHANNELS 3 Zrotation Xrotation Yrotation
                    JOINT RightHandIndex3
                    {
                      OFFSET -2.2628 -0.552002 0.3989
                      CHANNELS 3 Zrotation Xrotation Yrotation
                      End Site
                      {
                        OFFSET -1.6102 -0.4807 0.2612
                      }
                    }
                  }
                }
                JOINT RightHandMiddle1
                {
                  OFFSET -8.9937 0.894989 0.2143
                  CHANNELS 3 Zrotation Xrotation Yrotation
                  JOINT RightHandMiddle2
                  {
                    OFFSET -4.0984 0.0113983 -0.0242
                    CHANNELS 3 Zrotation Xrotation Yrotation
                    JOINT RightHandMiddle3
                    {
                      OFFSET -2.2716 0.00691223 -0.0138001
                      CHANNELS 3 Zrotation Xrotation Yrotation
                      End Site
                      {
                        OFFSET -2.0404 -0.1441 0.0027
                      }
                    }
                  }
                }
                JOINT RightHandRing1
                {
                  OFFSET -8.5234 0.597198 -2.0164
                  CHANNELS 3 Zrotation Xrotation Yrotation
                  JOINT RightHandRing2
                  {
                    OFFSET -3.7188 -0.188309 -0.2328
                    CHANNELS 3 Zrotation Xrotation Yrotation
                    JOINT RightHandRing3
                    {
                      OFFSET -2.1191 -0.106598 -0.1332
                      CHANNELS 3 Zrotation Xrotation Yrotation
                      End Site
                      {
                        OFFSET -1.8737 -0.2304 -0.0886
                      }
                    }
                  }
                }
                JOINT RightHandPinky1
                {
                  OFFSET -7.9094 -0.601105 -3.4825
                  CHANNELS 3 Zrotation Xrotation Yrotation
                  JOINT RightHandPinky2
                  {
                    OFFSET -2.2874 -0.477005 -0.6314
                    CHANNELS 3 Zrotation Xrotation Yrotation
                    JOINT RightHandPinky3
                    {
                      OFFSET -1.6774 -0.349396 -0.4633
                      CHANNELS 3 Zrotation Xrotation Yrotation
                      End Site
                      {
                        OFFSET -1.4888 -0.4091 -0.3416
                      }
                    }
                  }
                }
                JOINT RightHandThumb1
                {
                  OFFSET -1.833 -1.38751 1.3896
                  CHANNELS 3 Zrotation Xrotation Yrotation
                  JOINT RightHandThumb2
                  {
                    OFFSET -3.41299 -1.12099 2.5732
                    CHANNELS 3 Zrotation Xrotation Yrotation
                    JOINT RightHandThumb3
                    {
                      OFFSET -2.24741 -0.804108 1.6192
                      CHANNELS 3 Zrotation Xrotation Yrotation
                      End Site
                      {
                        OFFSET -1.6527 -0.5689 1.1317
                      }
                    }
                  }
                }
              }
            }
          }
        }
      }
    }
  }
  JOINT RightUpLeg
  {
    OFFSET -9.1966 3.8861 -0.7581
    CHANNELS 3 Zrotation Xrotation Yrotation
    JOINT RightLeg
    {
      OFFSET -0.7359 -41.0265 0
      CHANNELS 3 Zrotation Xrotation Yrotation
      JOINT RightFoot
      {
        OFFSET 0 -40.2855 0
        CHANNELS 3 Zrotation Xrotation Yrotation
        JOINT RightToeBase
        {
          OFFSET 0 -5.6122 11.7359
          CHANNELS 3 Zrotation Xrotation Yrotation
          End Site
          {
            OFFSET 0 0 7.8731
          }
        }
      }
    }
  }
  JOINT LeftUpLeg
  {
    OFFSET 9.1965 3.8864 -0.7581
    CHANNELS 3 Zrotation Xrotation Yrotation
    JOINT LeftLeg
    {
      OFFSET 0.7359 -41.0268 0
      CHANNELS 3 Zrotation Xrotation Yrotation
      JOINT LeftFoot
      {
        OFFSET 0 -40.2855 0
        CHANNELS 3 Zrotation Xrotation Yrotation
        JOINT LeftToeBase
        {
          OFFSET 0 -5.6122 11.7359
          CHANNELS 3 Zrotation Xrotation Yrotation
          End Site
          {
            OFFSET 0 0 7.8731
          }
        }
      }
    }
  }
}
MOTION
Frames:	5
Frame Time:	0.0333333
-8.05797 5.63423 9.34769 -90 0 -0 2.39233 2.20863 -7.45502 5.05622 4.08605 -15.0102 5.05621 4.08605 -15.0102 24.3606 -1.8243 0.823225 8.61508 3.37438 0.045381 -5.58658 -11.286 24.6863 -63.0836 15.2144 -42.4124 -16.0486 -1.39937 0.130399 -1.54036e-006 -4.56522e-007 -5.7699e-007 3.18055e-015 0 3.18055e-015 3.8509e-007 1.14131e-007 1.44248e-007 -1.27222e-014 -9.54166e-015 -1.59028e-014 3.18055e-015 0 3.18055e-015 -0.0146294 -9.10865e-005 2.86974e-006 8.04892e-007 -1.52071e-006 -4.80116e-007 3.18055e-015 0 3.18055e-015 -0.0187537 -0.00117235 5.8827e-005 -6.36111e-015 1.27222e-014 -0 3.18055e-015 0 3.18055e-015 -0.0122933 -0.00325482 0.000674736 8.05187e-007 -1.52116e-006 -4.80016e-007 3.18055e-015 0 3.18055e-015 3.8509e-007 1.14131e-007 1.44248e-007 -1.27222e-014 -9.54166e-015 -1.59028e-014 -95.4084 -72.0671 -145.357 -13.7051 -12.1058 -15.3945 33.386 27.8842 -0.215929 3.57402 53.0978 -33.2337 6.36111e-015 -1.59028e-015 1.59028e-015 3.18055e-015 -4.77083e-015 -0 3.18055e-015 -3.18055e-015 -0 6.36111e-015 -1.59028e-015 1.59028e-015 0.014966 -9.25878e-005 1.13795e-006 6.36111e-015 -3.18055e-015 3.97569e-015 6.36111e-015 -1.59028e-015 1.59028e-015 0.0189924 -0.00119595 -6.23791e-005 -6.62086e-032 4.77083e-015 7.95139e-016 6.36111e-015 -1.59028e-015 1.59028e-015 0.0122659 -0.00324957 -0.00067901 6.36111e-015 4.77083e-015 1.59028e-015 6.36111e-015 -1.59028e-015 1.59028e-015 3.18055e-015 -4.77083e-015 -0 3.18055e-015 -3.18055e-015 -0 -6.59691 -13.2579 1.81461 57.5637 23.8594 -85.2178 13.8521 32.8685 14.8025 2.25279e-007 -3.58426e-007 -4.8376e-008 5.48923 13.4617 8.64549 4.65892 71.4235 -6.38667 2.26461 3.1852 2.94097 8.02082e-006 1.15917e-006 -7.66434e-006 
-8.05701 5.63431 9.17428 -90 0 -0 2.37872 2.33968 -7.39192 5.04461 4.35158 -14.8909 5.04461 4.35158 -14.8909 24.3095 -1.8251 0.821562 8.58656 3.41313 0.0423116 -5.13638 -11.735 24.6669 -63.2154 15.3131 -42.5757 -16.2087 -1.37105 0.130095 1.53903e-006 3.43787e-008 -2.93653e-006 3.18055e-015 1.27222e-014 -0 3.85097e-007 1.14139e-007 1.44242e-007 7.06225e-031 -6.36111e-015 6.36111e-015 3.18055e-015 1.27222e-014 -0 -0.0146456 -8.81176e-005 9.95398e-007 -3.18055e-015 -3.18055e-015 -3.18055e-015 3.18055e-015 1.27222e-014 -0 -0.0187769 -0.00117614 6.51907e-005 -3.18055e-015 -3.18055e-015 -0 3.18055e-015 1.27222e-014 -0 -0.0122464 -0.0032398 0.00067409 3.53113e-031 6.36111e-015 -3.18055e-015 3.18055e-015 1.27222e-014 -0 3.85097e-007 1.14139e-007 1.44242e-007 7.06225e-031 -6.36111e-015 6.36111e-015 -96.1826 -71.7178 -146.495 -13.705 -12.1058 -15.3945 33.2703 27.662 -0.214735 4.43517 53.0713 -33.8396 3.18055e-015 -6.36111e-015 -0 6.36111e-015 -4.77083e-015 2.38542e-015 0 0 -7.95139e-016 3.18055e-015 -6.36111e-015 -0 0.0149876 -8.72149e-005 8.92951e-008 3.18055e-015 -1.59028e-015 2.38542e-015 3.18055e-015 -6.36111e-015 -0 0.0190122 -0.00118238 -6.00536e-005 6.36111e-015 0 -0 3.18055e-015 -6.36111e-015 -0 0.0122386 -0.0032443 -0.000673583 -3.18055e-015 -3.18055e-015 7.95139e-016 3.18055e-015 -6.36111e-015 -0 6.36111e-015 -4.77083e-015 2.38542e-015 0 0 -7.95139e-016 -6.6219 -13.3883 1.7485 57.5564 23.8577 -85.22 13.7732 32.9025 14.7331 -2.15067e-006 -1.35142e-006 -1.55306e-007 5.49356 13.2019 8.674 4.8595 71.7447 -6.56576 2.26368 3.18352 2.94103 -2.34855e-007 5.31006e-007 -1.36071e-005 
-8.05606 5.6344 9.00086 -90 0 -0 2.36483 2.47069 -7.32878 5.03219 4.61709 -14.7715 5.03219 4.61709 -14.7715 24.2579 -1.82577 0.819994 8.55802 3.45189 0.0392677 -4.68563 -12.1841 24.6509 -63.347 15.4121 -42.7387 -16.3688 -1.34239 0.129774 -1.04818e-006 -9.80397e-007 9.71628e-007 -1.59028e-014 -1.27222e-014 -2.22639e-014 -1.9255e-007 -5.70706e-008 -7.21258e-008 -3.18055e-015 9.54166e-015 -6.36111e-015 -1.59028e-014 -1.27222e-014 -2.22639e-014 -0.0146238 -8.69857e-005 -1.48313e-006 -3.53113e-031 6.36111e-015 3.18055e-015 -1.59028e-014 -1.27222e-014 -2.22639e-014 -0.0187867 -0.00118115 5.80426e-005 -6.36111e-015 -1.90833e-014 9.54166e-015 -1.59028e-014 -1.27222e-014 -2.22639e-014 -0.0122366 -0.00323479 0.000672324 0 0 -0 -1.59028e-014 -1.27222e-014 -2.22639e-014 -1.9255e-007 -5.70706e-008 -7.21258e-008 -3.18055e-015 9.54166e-015 -6.36111e-015 -96.9207 -71.3639 -147.598 -13.705 -12.1058 -15.3945 33.1534 27.4411 -0.213597 5.29514 53.0393 -34.4443 3.79803e-007 1.33995e-006 -4.57326e-007 -2.10113e-006 4.23675e-006 -7.62411e-007 -3.68601e-007 3.20845e-007 -1.82676e-006 3.79803e-007 1.33995e-006 -4.57326e-007 0.0149805 -8.7137e-005 -1.54842e-007 -3.68637e-007 3.20607e-007 -1.8268e-006 3.79803e-007 1.33995e-006 -4.57326e-007 0.0189742 -0.00118791 -5.87474e-005 -3.68664e-007 3.20545e-007 -1.8268e-006 3.79803e-007 1.33995e-006 -4.57326e-007 0.0122664 -0.00325294 -0.000676179 -3.68683e-007 3.20655e-007 -1.82678e-006 3.79803e-007 1.33995e-006 -4.57326e-007 -2.10113e-006 4.23675e-006 -7.62411e-007 -3.68601e-007 3.20845e-007 -1.82676e-006 -6.64694 -13.519 1.68233 57.549 23.8562 -85.2225 13.6942 32.9365 14.6637 -6.94137e-007 1.79272e-007 -2.13858e-006 5.49801 12.943 8.70255 5.06648 72.0649 -6.75139 2.2628 3.18186 2.94111 -3.5894e-006 -2.94844e-006 -3.74165e-006 
-8.05511 5.63448 8.82743 -90 0 -0 2.35067 2.60166 -7.26562 5.01902 4.88256 -14.6521 5.019 4.88256 -14.6521 24.2066 -1.82656 0.81833 8.5295 3.49065 0.0362382 -4.23432 -12.6332 24.6386 -63.4784 15.5114 -42.9016 -16.5289 -1.31335 0.129463 -2.43284e-007 -3.84132e-006 -3.87072e-006 9.54166e-015 6.36111e-015 -0 -8.19849e-007 -3.59439e-006 -5.73524e-007 -3.18055e-015 -3.18055e-015 3.18055e-015 9.54166e-015 6.36111e-015 -0 -0.0145976 -9.39929e-005 -2.11651e-007 -5.29669e-031 3.18055e-015 9.54166e-015 9.54166e-015 6.36111e-015 -0 -0.0187173 -0.00117857 6.2579e-005 5.87203e-007 -1.5832e-006 -5.6467e-007 9.54166e-015 6.36111e-015 -0 -0.0122646 -0.00325127 0.000679455 1.32338e-007 -1.55437e-006 5.6774e-007 9.54166e-015 6.36111e-015 -0 -8.19849e-007 -3.59439e-006 -5.73524e-007 -3.18055e-015 -3.18055e-015 3.18055e-015 -97.6243 -71.0057 -148.666 -13.705 -12.1058 -15.3945 33.0351 27.2215 -0.212473 6.15368 53.0019 -35.0475 -3.18055e-015 -3.18055e-015 3.18055e-015 6.57156e-007 1.6833e-007 -5.13256e-007 -3.18055e-015 1.59028e-015 -3.18055e-015 -3.18055e-015 -3.18055e-015 3.18055e-015 0.014978 -8.46921e-005 -2.21414e-006 1.99756e-007 -3.07797e-006 5.37855e-009 -3.18055e-015 -3.18055e-015 3.18055e-015 0.0190082 -0.00118853 -5.88746e-005 2.00298e-007 -3.07812e-006 5.47728e-009 -3.18055e-015 -3.18055e-015 3.18055e-015 0.0122508 -0.00323997 -0.000679072 -9.54166e-015 -4.77083e-015 -1.59028e-015 -3.18055e-015 -3.18055e-015 3.18055e-015 6.57156e-007 1.6833e-007 -5.13256e-007 -3.18055e-015 1.59028e-015 -3.18055e-015 -6.67237 -13.6483 1.61601 57.5414 23.854 -85.2237 13.6152 32.9706 14.5944 4.15158e-006 7.0563e-008 1.16352e-005 5.50251 12.6834 8.73111 5.2811 72.3856 -6.94446 2.26189 3.18024 2.94114 3.58702e-006 2.9506e-006 3.74345e-006 
-8.05417 5.63457 8.654 -90 0 -0 2.33626 2.73259 -7.20242 5.00502 5.148 -14.5326 5.00501 5.148 -14.5326 24.1556 -1.82725 0.816681 8.50096 3.52941 0.0332267 -3.78243 -13.0823 24.6299 -63.6095 15.6111 -43.0644 -16.6888 -1.28399 0.129151 2.50235e-006 3.2569e-007 -2.57563e-006 9.12991e-007 -3.08074e-006 7.37438e-008 -7.7388e-007 1.52666e-006 4.95899e-007 7.24141e-007 -4.89271e-006 -7.82946e-007 9.12991e-007 -3.08074e-006 7.37438e-008 -0.014618 -8.83583e-005 1.14372e-006 1.42657e-007 -3.30896e-006 -2.15311e-007 9.12991e-007 -3.08074e-006 7.37438e-008 -0.0187493 -0.00117787 6.05261e-005 1.42611e-007 -3.30896e-006 -2.15431e-007 9.12991e-007 -3.08074e-006 7.37438e-008 -0.0122649 -0.00324777 0.000675144 1.42656e-007 -3.309e-006 -2.1524e-007 9.12991e-007 -3.08074e-006 7.37438e-008 -7.7388e-007 1.52666e-006 4.95899e-007 7.24141e-007 -4.89271e-006 -7.82946e-007 -98.2949 -70.6435 -149.702 -13.705 -12.1058 -15.3945 32.9154 27.0032 -0.211355 7.01057 52.9591 -35.6491 -6.36111e-015 0 7.95139e-016 -9.11041e-007 2.90559e-006 5.2031e-007 4.42563e-007 1.344e-006 -4.94394e-007 -6.36111e-015 0 7.95139e-016 0.0150018 -9.54065e-005 3.5269e-006 4.43851e-007 1.34392e-006 -4.9457e-007 -6.36111e-015 0 7.95139e-016 0.0189946 -0.00119187 -6.06214e-005 -6.36111e-015 -6.36111e-015 2.38542e-015 -6.36111e-015 0 7.95139e-016 0.0122576 -0.00324363 -0.000677255 4.43594e-007 1.34367e-006 -4.94609e-007 -6.36111e-015 0 7.95139e-016 -9.11041e-007 2.90559e-006 5.2031e-007 4.42563e-007 1.344e-006 -4.94394e-007 -6.69774 -13.7789 1.54968 57.5339 23.8524 -85.226 13.5362 33.0048 14.5251 -2.49263e-007 -2.75329e-007 2.13704e-006 5.50715 12.4243 8.75968 5.50294 72.7056 -7.14489 2.26103 3.17859 2.94122 -8.0299e-008 -1.86152e-007 3.66495e-006 
